<?xml version="1.0" encoding="UTF-8"?>
<svg id="Layer_1" xmlns="http://www.w3.org/2000/svg" version="1.1" viewBox="0 0 1280 298.3">
  <!-- Generator: Adobe Illustrator 29.6.1, SVG Export Plug-In . SVG Version: 2.1.1 Build 9)  -->
  <defs>
    <style>
      .st0 {
        fill: #e5a00d;
      }
    </style>
  </defs>
  <path class="st0" d="M308.74,242.7c-51.37.09-93.35-41.8-93.44-93.26,0-51.37,41.8-93.35,93.26-93.44,51.37-.09,93.35,41.8,93.44,93.26.09,51.46-41.71,93.35-93.26,93.44ZM323.32,134.6c.61.97,1.05,1.58,1.41,2.2,3.34,5.36,6.76,10.63,9.92,16.07,2.11,3.42,4.92,5.09,8.96,5.09,12.91-.09,25.82,0,38.73,0,.7,0,1.41-.09,2.2-.09v-16.77h-35.3c-1.49,0-2.37-.44-3.16-1.76-5.62-9.22-11.33-18.35-17.12-27.49-1.05-1.58-2.55-3.16-4.22-4.04-4.57-2.37-9.66.09-11.68,5.44-6.15,16.25-12.21,32.58-18.35,48.83-.26.61-.53,1.14-.88,2.02-.53-.88-.97-1.41-1.32-2.02-3.34-5.36-6.76-10.71-10.1-16.16-2.02-3.42-4.92-4.92-8.87-4.92-12.91.09-25.82,0-38.73,0-.7,0-1.41.09-2.28.09v16.77h2.72c10.71,0,21.43.09,32.23-.09,1.93,0,2.9.61,3.86,2.2,5.44,8.96,11.06,17.91,16.69,26.78.79,1.32,1.84,2.63,3.16,3.51,4.65,3.16,10.54,1.23,12.65-4.22,3.34-8.69,6.59-17.48,9.84-26.17,3.25-8.25,6.41-16.51,9.66-25.29Z"/>
  <polygon class="st0" points="612.6 86.6 587.6 86.6 532.2 213.9 558 213.9 600.2 117.2 643 213.9 669 213.9 612.6 86.6"/>
  <path class="st0" d="M1183.2,128.1c0-22-17.9-39.9-39.9-39.9h-53.8c9.9,4.8,17.7,13.2,21.8,23.5h32c9.1,0,16.4,7.4,16.4,16.4s-7.4,16.4-16.4,16.4h-20.9l31.2,68.1h26.9l-20.2-48.4c13.5-6.3,22.9-20.1,22.9-36.1Z"/>
  <path class="st0" d="M1082.5,164.3c13.6-6.4,23-20.2,23-36.2,0-22-17.9-39.9-39.9-39.9h-47.6l10.4,23.5h37.1c9.1,0,16.4,7.4,16.4,16.4s-7.4,16.4-16.4,16.4h-20.9l31.2,68.1h26.9l-20.2-48.3Z"/>
  <path class="st0" d="M823.8,214h-25.5v-25.5h43.2c9.4,0,17.7-3.3,24.9-9.9,7.2-6.6,11.1-14.8,11.6-24.7v-.3c0-.3,0-.5.1-.6v-1.2c0-7.3-1.8-14-5.3-20.2s-8.9-11-16-14.3c-.1,0-.3-.1-.4-.1s-.2-.1-.3-.2c-.1,0-.3-.1-.7-.3-2.2-.9-4.5-1.6-6.9-2.2h-.8c-1.8-.4-3.8-.5-6.1-.5h-43.2v-25.6h46.8c1,0,1.7,0,2.4.1,15.7,1.5,29,8.1,39.9,19.9s16.4,25.8,16.4,41.9v1.6c0,16.1-5.5,30.1-16.4,41.9s-24.2,18.4-39.9,19.9c-.5.1-1.1.2-1.6.2h-22.2v.1Z"/>
  <path class="st0" d="M1035.3,151.4c0,8.8-1.6,17-4.9,24.5-3.3,7.6-7.8,14.2-13.5,19.8-5.7,5.7-12.3,10.1-20,13.4-7.6,3.3-15.8,4.9-24.5,4.9s-16.9-1.6-24.5-4.9c-7.6-3.3-14.3-7.8-20-13.5-5.8-5.7-10.3-12.3-13.6-19.8-3.3-7.7-4.9-15.8-4.9-24.5s1.6-16.7,4.9-24.3c3.2-7.5,7.7-14.2,13.6-20.1,5.8-5.8,12.4-10.3,20-13.6,7.5-3.3,15.7-4.9,24.5-4.9s17.1,1.7,24.7,5c7.6,3.4,14.2,7.9,19.9,13.6,5.6,5.7,10.1,12.4,13.4,20.1,3.3,7.6,4.9,15.7,4.9,24.3ZM1009.6,151.4c0-3.1-.5-6.5-1.4-10.1-1-3.6-2.5-6.9-4.4-10.1-2.1-3.2-4.7-6.2-7.8-8.8-3.3-2.7-7.1-4.9-11.6-6.5-1.1-.4-2.2-.6-3.2-.7-.6,0-1.2-.1-1.8-.2s-1.1-.2-1.5-.3c-.4,0-1.5-.2-3.5-.6-1.8-.1-2.6-.1-2.4-.1-2.5,0-5.2.3-8.1,1-2.8.7-5.6,1.7-8.5,3.2-3,1.6-5.7,3.5-8.1,5.7-2.5,2.2-4.7,4.9-6.7,8.2-2.5,4-4,7.9-4.6,11.7-.2,1-.5,2.3-.7,3.8-.1,1.2-.2,2.5-.2,4,0,5.1,1,9.8,2.9,14.2,1.8,4.4,4.4,8.3,8,11.8,3.4,3.5,7.3,6.1,11.9,8,4.5,2,9.4,3.1,14.4,3.1s9.6-1,14.3-2.9c4.4-1.9,8.4-4.5,11.9-7.9s6.2-7.3,8.1-11.7c2-4.5,3-9.4,3-14.8Z"/>
  <polygon class="st0" points="122.8 214 148.5 214 148.5 170.6 187.7 214 222.2 214 122.8 104.1 122.8 214"/>
  <polygon class="st0" points="148.5 88.5 122.8 88.5 122.8 89.5 148.5 118 148.5 88.5"/>
  <polygon class="st0" points="222.4 88.5 187.9 88.5 155 125 172.2 144.1 222.4 88.5"/>
  <polygon class="st0" points="471.3 140 445.6 101.3 445.6 146.5 471.5 185.4 497.3 146.5 497.3 101.4 471.3 140"/>
  <polygon class="st0" points="437 88.5 412.3 88.5 412.3 214 437.2 214 437.2 133.9 437.2 88.8 437 88.5"/>
  <polygon class="st0" points="505.9 88.5 505.6 88.9 505.6 134 505.7 133.9 505.7 214 530.5 214 530.5 88.5 505.9 88.5"/>
  <g>
    <polygon class="st0" points="701.4 88.7 701.3 88.5 675.7 88.5 675.7 214 701.4 214 701.4 133.7 701.4 133.8 701.4 88.7"/>
    <polygon class="st0" points="756.7 88.5 756.7 168.7 709.8 100.9 709.8 145.9 756.8 214 782.3 214 782.3 88.5 756.7 88.5"/>
  </g>
</svg>