<?xml version="1.0" encoding="UTF-8"?>
<svg id="Layer_1" xmlns="http://www.w3.org/2000/svg" version="1.1" viewBox="0 0 1000 1000">
  <!-- Generator: Adobe Illustrator 29.6.1, SVG Export Plug-In . SVG Version: 2.1.1 Build 9)  -->
  <defs>
    <style>
      .st0 {
        fill: #e5a124;
      }
    </style>
  </defs>
  <path class="st0" d="M497.42,957.27c-249.19.42-452.81-201.53-453.28-449.57,0-247.68,202.78-450.04,452.4-450.46,249.19-.42,452.81,201.53,453.28,449.57.42,248.1-202.37,450.04-452.4,450.46h0ZM568.13,436.15c2.98,4.65,5.12,7.63,6.79,10.61,16.2,25.82,32.82,51.22,48.14,77.46,10.24,16.52,23.83,24.56,43.43,24.56,62.61-.42,125.22,0,187.89,0,3.4,0,6.79-.42,10.66-.42v-80.85h-171.27c-7.26,0-11.5-2.14-15.31-8.47-27.28-44.48-54.93-88.48-83.05-132.49-5.12-7.63-12.33-15.26-20.44-19.49-22.16-11.45-46.88.42-56.65,26.24-29.84,78.34-59.22,157.05-89.06,235.4-1.25,2.98-2.56,5.49-4.29,9.72-2.56-4.23-4.7-6.79-6.38-9.72-16.2-25.82-32.82-51.64-48.97-77.87-9.77-16.52-23.83-23.73-43.01-23.73-62.61.42-125.22,0-187.89,0-3.4,0-6.79.42-11.08.42v80.85h13.22c51.95,0,103.95.42,156.32-.42,9.36,0,14.06,2.98,18.76,10.61,26.39,43.17,53.68,86.34,80.96,129.14,3.82,6.38,8.94,12.7,15.31,16.93,22.58,15.26,51.11,5.91,61.36-20.33,16.2-41.92,31.93-84.25,47.72-126.17,15.78-39.77,31.1-79.6,46.88-121.93l-.05-.05Z"/>
</svg>